<svg id="icons" xmlns="http://www.w3.org/2000/svg" xmlns:xlink="http://www.w3.org/1999/xlink" viewBox="0 0 27.17 27.17"><defs><style>.cls-1,.cls-3,.cls-5{fill:#fff;}.cls-1{clip-rule:evenodd;}.cls-2{fill:#8e997d;stroke:#8e997d;stroke-miterlimit:10;stroke-width:0.75px;}.cls-3{fill-rule:evenodd;}.cls-4{clip-path:url(#clip-path);}.cls-6{clip-path:url(#clip-path-2);}.cls-7{clip-path:url(#clip-path-3);}</style><clipPath id="clip-path" transform="translate(-392.68 -682.46)"><path class="cls-1" d="M406.27,690c2,0,2.19,0,3,0a4.07,4.07,0,0,1,1.36.25,2.43,2.43,0,0,1,1.39,1.39,4.07,4.07,0,0,1,.25,1.36c0,0.77,0,1,0,3s0,2.19,0,3a4.07,4.07,0,0,1-.25,1.36,2.43,2.43,0,0,1-1.39,1.39,4.06,4.06,0,0,1-1.36.25c-0.77,0-1,0-3,0s-2.19,0-3,0a4.06,4.06,0,0,1-1.36-.25,2.43,2.43,0,0,1-1.39-1.39,4.07,4.07,0,0,1-.25-1.36c0-.77,0-1,0-3s0-2.19,0-3a4.07,4.07,0,0,1,.25-1.36,2.43,2.43,0,0,1,1.39-1.39,4.07,4.07,0,0,1,1.36-.25c0.77,0,1,0,3,0m0-1.32c-2,0-2.25,0-3,0a5.39,5.39,0,0,0-1.78.34,3.76,3.76,0,0,0-2.15,2.15A5.39,5.39,0,0,0,399,693c0,0.78,0,1,0,3s0,2.25,0,3a5.39,5.39,0,0,0,.34,1.78,3.76,3.76,0,0,0,2.15,2.15,5.39,5.39,0,0,0,1.78.34c0.78,0,1,0,3,0s2.25,0,3,0a5.39,5.39,0,0,0,1.78-.34,3.76,3.76,0,0,0,2.15-2.15,5.39,5.39,0,0,0,.34-1.78c0-.78,0-1,0-3s0-2.25,0-3a5.39,5.39,0,0,0-.34-1.78,3.76,3.76,0,0,0-2.15-2.15,5.39,5.39,0,0,0-1.78-.34c-0.78,0-1,0-3,0"/></clipPath><clipPath id="clip-path-2" transform="translate(-392.68 -682.46)"><path class="cls-1" d="M406.27,698.59a2.54,2.54,0,1,1,2.54-2.54,2.54,2.54,0,0,1-2.54,2.54m0-6.5a4,4,0,1,0,4,4,4,4,0,0,0-4-4"/></clipPath><clipPath id="clip-path-3" transform="translate(-392.68 -682.46)"><path class="cls-1" d="M411.19,692.15a0.9,0.9,0,1,1-.9-0.9,0.9,0.9,0,0,1,.9.9"/></clipPath></defs><title>instagram_on</title><circle class="cls-2" cx="13.59" cy="13.59" r="13.21"/><path class="cls-3" d="M406.27,690c2,0,2.19,0,3,0a4.07,4.07,0,0,1,1.36.25,2.43,2.43,0,0,1,1.39,1.39,4.07,4.07,0,0,1,.25,1.36c0,0.77,0,1,0,3s0,2.19,0,3a4.07,4.07,0,0,1-.25,1.36,2.43,2.43,0,0,1-1.39,1.39,4.06,4.06,0,0,1-1.36.25c-0.77,0-1,0-3,0s-2.19,0-3,0a4.06,4.06,0,0,1-1.36-.25,2.43,2.43,0,0,1-1.39-1.39,4.07,4.07,0,0,1-.25-1.36c0-.77,0-1,0-3s0-2.19,0-3a4.07,4.07,0,0,1,.25-1.36,2.43,2.43,0,0,1,1.39-1.39,4.07,4.07,0,0,1,1.36-.25c0.77,0,1,0,3,0m0-1.32c-2,0-2.25,0-3,0a5.39,5.39,0,0,0-1.78.34,3.76,3.76,0,0,0-2.15,2.15A5.39,5.39,0,0,0,399,693c0,0.78,0,1,0,3s0,2.25,0,3a5.39,5.39,0,0,0,.34,1.78,3.76,3.76,0,0,0,2.15,2.15,5.39,5.39,0,0,0,1.78.34c0.78,0,1,0,3,0s2.25,0,3,0a5.39,5.39,0,0,0,1.78-.34,3.76,3.76,0,0,0,2.15-2.15,5.39,5.39,0,0,0,.34-1.78c0-.78,0-1,0-3s0-2.25,0-3a5.39,5.39,0,0,0-.34-1.78,3.76,3.76,0,0,0-2.15-2.15,5.39,5.39,0,0,0-1.78-.34c-0.78,0-1,0-3,0" transform="translate(-392.68 -682.46)"/><g class="cls-4"><rect class="cls-5" x="3.41" y="3.41" width="20.35" height="20.35"/></g><path class="cls-3" d="M406.27,698.59a2.54,2.54,0,1,1,2.54-2.54,2.54,2.54,0,0,1-2.54,2.54m0-6.5a4,4,0,1,0,4,4,4,4,0,0,0-4-4" transform="translate(-392.68 -682.46)"/><g class="cls-6"><rect class="cls-5" x="6.81" y="6.81" width="13.56" height="13.56"/></g><path class="cls-3" d="M411.19,692.15a0.9,0.9,0,1,1-.9-0.9,0.9,0.9,0,0,1,.9.9" transform="translate(-392.68 -682.46)"/><g class="cls-7"><rect class="cls-5" x="13.87" y="5.96" width="7.46" height="7.46"/></g></svg>