<svg id="icons" xmlns="http://www.w3.org/2000/svg" viewBox="0 0 27.17 27.17"><defs><style>.cls-1{fill:#8e997d;stroke:#8e997d;stroke-miterlimit:10;stroke-width:0.75px;}.cls-2{fill:#fff;}</style></defs><title>linkedin_on</title><circle class="cls-1" cx="13.59" cy="13.59" r="13.21"/><path class="cls-2" d="M436,689.09a1,1,0,0,0-1,1v11.68a1,1,0,0,0,1,1H447.6a1,1,0,0,0,1-1V690.08a1,1,0,0,0-1-1m-8.44,11.55h-2.1v-6.3h2.1v6.3Zm-1-7.14a1.26,1.26,0,1,1,1.26-1.26A1.26,1.26,0,0,1,438.11,693.5Zm8.4,7.14h-2.1v-3.15c0-.85-0.23-1.66-1-1.66s-1,.82-1,1.67v3.14h-2.1v-6.3h2.1v0.76h0.1a2,2,0,0,1,1.75-.95c1.94,0,2.35,1.27,2.35,2.81v3.67Z" transform="translate(-428.2 -682.33)"/></svg>